<svg xmlns="http://www.w3.org/2000/svg" xmlns:xlink="http://www.w3.org/1999/xlink" width="500" zoomAndPan="magnify" viewBox="0 0 375 374.999991" height="500" preserveAspectRatio="xMidYMid meet" version="1.0"><defs><filter x="0%" y="0%" width="100%" height="100%" id="bd7998255d"><feColorMatrix values="0 0 0 0 1 0 0 0 0 1 0 0 0 0 1 0 0 0 1 0" color-interpolation-filters="sRGB"/></filter><g/><mask id="cbd21057d6"><g filter="url(#bd7998255d)"><rect x="-37.5" width="450" fill="#000000" y="-37.499999" height="449.999989" fill-opacity="0.25"/></g></mask><clipPath id="d697a6b4db"><path d="M 29 42 L 167 42 L 167 148 L 29 148 Z M 29 42 " clip-rule="nonzero"/></clipPath><clipPath id="bb92b2d1d5"><path d="M 192.378906 124.125 L 51.085938 181.988281 L 0.660156 58.859375 L 141.953125 0.996094 Z M 192.378906 124.125 " clip-rule="nonzero"/></clipPath><clipPath id="ddf94ca8b2"><path d="M 192.378906 124.125 L 51.085938 181.988281 L 0.660156 58.859375 L 141.953125 0.996094 Z M 192.378906 124.125 " clip-rule="nonzero"/></clipPath><clipPath id="b97504d918"><path d="M 192.378906 124.125 L 51.085938 181.988281 L 0.660156 58.859375 L 141.953125 0.996094 Z M 192.378906 124.125 " clip-rule="nonzero"/></clipPath><clipPath id="e3c76f8f30"><rect x="0" width="193" y="0" height="183"/></clipPath><clipPath id="92fd67a149"><path d="M 105 59 L 273.640625 59 L 273.640625 226.800781 L 105 226.800781 Z M 105 59 " clip-rule="nonzero"/></clipPath><clipPath id="43a6424aa8"><path d="M 195 44.667969 L 236 44.667969 L 236 112 L 195 112 Z M 195 44.667969 " clip-rule="nonzero"/></clipPath></defs><g mask="url(#cbd21057d6)"><g transform="matrix(1, 0, 0, 1, 62, 56)"><g clip-path="url(#e3c76f8f30)"><g clip-path="url(#d697a6b4db)"><g clip-path="url(#bb92b2d1d5)"><g clip-path="url(#ddf94ca8b2)"><g clip-path="url(#b97504d918)"><path fill="#76cccf" d="M 80.707031 143.769531 C 54.855469 134.394531 6.1875 72.105469 43.175781 47.710938 C 68.1875 31.203125 72.175781 57.636719 106.476562 78.335938 C 117.839844 85.183594 173.425781 78.09375 165.261719 113.34375 C 160.417969 134.234375 114.519531 156.007812 80.707031 143.769531 Z M 80.707031 143.769531 " fill-opacity="1" fill-rule="nonzero"/></g></g></g></g></g></g></g><g clip-path="url(#92fd67a149)"><path fill="#336b87" d="M 239.558594 75.617188 C 239.449219 75.53125 239.328125 75.46875 239.191406 75.433594 C 239.058594 75.394531 238.921875 75.386719 238.785156 75.40625 C 238.644531 75.421875 238.515625 75.46875 238.398438 75.539062 C 238.277344 75.609375 238.175781 75.699219 238.09375 75.8125 C 238.007812 75.921875 237.949219 76.046875 237.917969 76.179688 C 237.882812 76.316406 237.878906 76.453125 237.902344 76.589844 C 237.921875 76.726562 237.972656 76.855469 238.046875 76.972656 C 238.117188 77.089844 238.214844 77.191406 238.328125 77.269531 C 258.890625 92.566406 270.859375 116.097656 271.167969 141.835938 C 271.273438 150.371094 270.074219 158.722656 267.574219 166.886719 C 265.988281 168.90625 264.414062 170.925781 262.78125 172.90625 C 260.949219 175.1875 258.996094 177.367188 256.929688 179.441406 C 256.460938 179.902344 255.984375 180.347656 255.496094 180.777344 C 255.257812 180.988281 255.019531 181.191406 254.78125 181.390625 L 254.445312 181.664062 L 254.300781 181.777344 C 254.410156 181.6875 254.269531 181.777344 254.238281 181.820312 C 253.058594 182.714844 251.792969 183.488281 250.578125 184.335938 C 249.253906 185.207031 248.0625 186.230469 247.003906 187.410156 C 245.980469 188.597656 245.261719 189.949219 244.847656 191.460938 C 244.457031 192.921875 244.371094 194.398438 244.59375 195.894531 C 244.816406 197.390625 245.328125 198.777344 246.125 200.0625 C 246.339844 200.386719 246.574219 200.691406 246.816406 200.992188 C 244.9375 202.855469 242.972656 204.621094 240.925781 206.289062 C 238.875 207.957031 236.75 209.523438 234.546875 210.984375 C 232.34375 212.445312 230.074219 213.792969 227.738281 215.03125 C 225.402344 216.273438 223.011719 217.394531 220.570312 218.398438 C 218.125 219.402344 215.636719 220.289062 213.105469 221.050781 C 210.574219 221.8125 208.011719 222.445312 205.417969 222.957031 C 202.824219 223.46875 200.210938 223.851562 197.582031 224.109375 C 194.949219 224.363281 192.3125 224.492188 189.667969 224.488281 L 189.53125 224.488281 C 184.289062 224.507812 179.097656 224.027344 173.949219 223.042969 C 168.804688 222.054688 163.800781 220.585938 158.941406 218.632812 C 154.078125 216.679688 149.449219 214.277344 145.050781 211.425781 C 140.65625 208.578125 136.574219 205.332031 132.804688 201.691406 C 133.425781 200.613281 133.898438 199.472656 134.234375 198.273438 C 134.566406 197.074219 134.746094 195.851562 134.769531 194.609375 C 134.796875 193.363281 134.667969 192.136719 134.386719 190.921875 C 134.105469 189.710938 133.675781 188.554688 133.101562 187.449219 C 131.957031 185.261719 130.152344 183.617188 128.449219 181.886719 C 128.023438 181.460938 127.636719 181.039062 127.261719 180.613281 L 127.003906 180.296875 L 126.976562 180.265625 C 126.9375 180.222656 126.90625 180.167969 126.871094 180.121094 C 126.707031 179.902344 126.546875 179.671875 126.402344 179.433594 C 126.261719 179.210938 126.136719 178.980469 126.019531 178.746094 L 125.929688 178.550781 C 125.878906 178.417969 125.832031 178.289062 125.785156 178.152344 C 125.703125 177.902344 125.640625 177.648438 125.59375 177.394531 C 125.59375 177.34375 125.570312 177.273438 125.5625 177.214844 L 125.5625 177.164062 C 125.5625 177.023438 125.5625 176.886719 125.539062 176.738281 C 125.539062 176.515625 125.539062 176.3125 125.570312 176.078125 C 125.570312 176.078125 125.570312 176.097656 125.570312 176.113281 C 125.582031 176.054688 125.59375 175.992188 125.597656 175.933594 C 125.597656 175.816406 125.640625 175.703125 125.671875 175.589844 C 125.722656 175.375 125.78125 175.167969 125.855469 174.960938 C 125.890625 174.851562 125.933594 174.746094 125.972656 174.632812 L 126.035156 174.488281 C 126.445312 173.628906 126.9375 172.820312 127.519531 172.0625 C 127.554688 172.011719 127.597656 171.960938 127.632812 171.910156 L 127.835938 171.652344 L 128.332031 171.046875 C 128.644531 170.660156 128.964844 170.28125 129.277344 169.890625 C 129.945312 169.097656 130.554688 168.257812 131.109375 167.378906 C 132.199219 165.570312 132.753906 163.410156 132.082031 161.34375 C 131.285156 158.921875 129.179688 157.179688 126.949219 156.101562 C 124.300781 154.878906 121.519531 154.199219 118.605469 154.0625 C 115.644531 153.878906 112.746094 154.214844 109.90625 155.070312 C 109.535156 155.179688 109.175781 155.304688 108.816406 155.429688 C 108.207031 151.449219 107.890625 147.441406 107.863281 143.410156 C 107.78125 133.828125 109.34375 124.519531 112.546875 115.488281 C 113.007812 114.226562 113.734375 113.144531 114.722656 112.238281 C 115.714844 111.332031 116.855469 110.703125 118.152344 110.355469 C 121.609375 109.386719 124.210938 109.378906 125.464844 110.355469 C 126.160156 110.878906 126.496094 111.738281 126.496094 112.972656 C 126.496094 117.015625 124.640625 120.894531 122.664062 125.003906 C 120.691406 129.109375 118.640625 133.410156 118.640625 137.921875 C 118.640625 140.375 118.878906 142.984375 120.648438 143.714844 C 123.074219 144.722656 126.460938 141.886719 136.082031 132.265625 C 141.652344 126.695312 147.035156 125.453125 151.363281 124.4375 C 156.304688 123.289062 160.574219 122.308594 162.023438 115.4375 C 163.339844 109.210938 161.082031 103.214844 159.085938 97.925781 C 157.164062 92.816406 155.351562 88.019531 156.984375 83.875 C 158.785156 79.3125 160.773438 77.410156 162.476562 76.144531 C 162.917969 75.828125 163.328125 75.476562 163.714844 75.09375 C 164.097656 74.710938 164.453125 74.296875 164.769531 73.859375 C 165.089844 73.421875 165.371094 72.957031 165.617188 72.472656 C 165.863281 71.988281 166.070312 71.488281 166.238281 70.972656 C 166.40625 70.453125 166.53125 69.929688 166.613281 69.390625 C 166.695312 68.855469 166.734375 68.3125 166.734375 67.769531 C 166.730469 67.226562 166.683594 66.6875 166.597656 66.152344 C 166.507812 65.617188 166.378906 65.089844 166.207031 64.574219 C 173.222656 62.492188 180.394531 61.375 187.710938 61.214844 L 187.738281 61.214844 C 188.589844 61.214844 189.398438 61.191406 190.226562 61.214844 C 190.363281 61.214844 190.496094 61.191406 190.621094 61.136719 C 190.746094 61.085938 190.859375 61.011719 190.957031 60.914062 C 191.050781 60.816406 191.128906 60.707031 191.179688 60.582031 C 191.230469 60.453125 191.257812 60.324219 191.257812 60.1875 C 191.257812 60.050781 191.230469 59.917969 191.179688 59.792969 C 191.128906 59.664062 191.050781 59.554688 190.957031 59.457031 C 190.859375 59.359375 190.746094 59.285156 190.621094 59.234375 C 190.496094 59.183594 190.363281 59.15625 190.226562 59.15625 L 189.316406 59.15625 C 186.460938 59.15625 183.609375 59.304688 180.769531 59.597656 C 177.925781 59.894531 175.105469 60.332031 172.308594 60.914062 C 169.511719 61.496094 166.753906 62.21875 164.027344 63.082031 C 161.304688 63.949219 158.632812 64.949219 156.015625 66.089844 C 153.394531 67.226562 150.835938 68.496094 148.347656 69.898438 C 145.855469 71.296875 143.445312 72.820312 141.109375 74.46875 C 138.777344 76.117188 136.53125 77.878906 134.378906 79.753906 C 132.222656 81.632812 130.171875 83.613281 128.21875 85.703125 C 128.125 85.800781 128.054688 85.917969 128.003906 86.042969 C 127.953125 86.171875 127.929688 86.304688 127.933594 86.445312 C 127.9375 86.582031 127.96875 86.714844 128.027344 86.839844 C 128.082031 86.964844 128.160156 87.074219 128.261719 87.167969 C 128.363281 87.261719 128.476562 87.332031 128.609375 87.378906 C 128.738281 87.429688 128.871094 87.449219 129.007812 87.445312 C 129.144531 87.4375 129.277344 87.40625 129.402344 87.347656 C 129.527344 87.289062 129.636719 87.210938 129.726562 87.105469 C 134.449219 82.046875 139.730469 77.65625 145.570312 73.941406 C 151.410156 70.222656 157.625 67.296875 164.207031 65.164062 C 164.492188 65.996094 164.636719 66.851562 164.644531 67.730469 C 164.652344 68.613281 164.523438 69.472656 164.253906 70.308594 C 163.988281 71.148438 163.59375 71.921875 163.078125 72.632812 C 162.558594 73.347656 161.945312 73.957031 161.230469 74.472656 C 159.292969 75.90625 157.042969 78.050781 155.046875 83.101562 C 153.125 87.980469 155.074219 93.15625 157.136719 98.632812 C 159.125 103.902344 161.183594 109.351562 159.992188 114.992188 C 158.8125 120.558594 155.824219 121.257812 150.875 122.40625 C 146.296875 123.472656 140.589844 124.796875 134.609375 130.785156 C 129.96875 135.417969 122.96875 142.417969 121.414062 141.789062 C 121.289062 141.738281 120.679688 141.3125 120.679688 137.902344 C 120.679688 133.855469 122.539062 129.980469 124.511719 125.871094 C 126.488281 121.761719 128.539062 117.464844 128.539062 112.953125 C 128.539062 111.050781 127.917969 109.617188 126.695312 108.695312 C 124.863281 107.300781 121.792969 107.191406 117.578125 108.371094 C 116.78125 108.589844 116.023438 108.902344 115.300781 109.300781 C 114.582031 109.703125 113.917969 110.183594 113.3125 110.746094 C 112.707031 111.304688 112.175781 111.929688 111.71875 112.617188 C 111.261719 113.308594 110.894531 114.039062 110.613281 114.816406 C 110.050781 116.386719 109.539062 117.976562 109.070312 119.578125 C 108.605469 121.179688 108.1875 122.796875 107.816406 124.421875 C 107.449219 126.050781 107.128906 127.6875 106.855469 129.335938 C 106.582031 130.980469 106.363281 132.636719 106.1875 134.296875 C 106.015625 135.957031 105.894531 137.621094 105.820312 139.285156 C 105.746094 140.953125 105.726562 142.621094 105.75 144.292969 C 105.777344 145.960938 105.855469 147.628906 105.980469 149.292969 C 106.109375 150.957031 106.285156 152.613281 106.511719 154.269531 C 106.738281 155.921875 107.011719 157.566406 107.335938 159.203125 C 107.664062 160.84375 108.035156 162.46875 108.457031 164.082031 C 108.878906 165.699219 109.351562 167.296875 109.867188 168.886719 C 110.386719 170.472656 110.949219 172.042969 111.5625 173.59375 C 112.175781 175.148438 112.832031 176.679688 113.535156 178.195312 C 114.238281 179.707031 114.988281 181.199219 115.78125 182.667969 C 116.574219 184.136719 117.410156 185.578125 118.289062 187 C 119.171875 188.417969 120.089844 189.808594 121.054688 191.171875 C 122.015625 192.535156 123.019531 193.867188 124.0625 195.171875 C 125.105469 196.476562 126.1875 197.746094 127.304688 198.984375 C 128.421875 200.222656 129.578125 201.425781 130.769531 202.597656 C 131.960938 203.765625 133.183594 204.898438 134.445312 205.996094 C 135.703125 207.089844 136.992188 208.148438 138.316406 209.167969 C 139.636719 210.1875 140.988281 211.164062 142.371094 212.101562 C 143.75 213.039062 145.15625 213.9375 146.59375 214.789062 C 148.027344 215.644531 149.484375 216.453125 150.96875 217.21875 C 152.453125 217.984375 153.957031 218.707031 155.480469 219.382812 C 157.007812 220.058594 158.554688 220.6875 160.117188 221.273438 C 161.679688 221.855469 163.261719 222.390625 164.855469 222.878906 C 166.453125 223.371094 168.0625 223.8125 169.683594 224.203125 C 171.304688 224.597656 172.9375 224.9375 174.582031 225.234375 C 176.222656 225.527344 177.875 225.773438 179.53125 225.96875 C 181.1875 226.167969 182.851562 226.3125 184.519531 226.410156 C 186.183594 226.503906 187.851562 226.550781 189.519531 226.546875 L 189.667969 226.546875 C 191.050781 226.546875 192.425781 226.507812 193.804688 226.4375 C 195.183594 226.367188 196.558594 226.265625 197.929688 226.125 C 199.300781 225.988281 200.667969 225.816406 202.035156 225.609375 C 203.398438 225.402344 204.753906 225.164062 206.105469 224.890625 C 207.457031 224.617188 208.804688 224.308594 210.140625 223.96875 C 211.476562 223.628906 212.804688 223.257812 214.121094 222.851562 C 215.441406 222.449219 216.75 222.011719 218.042969 221.539062 C 219.339844 221.070312 220.625 220.570312 221.898438 220.035156 C 223.167969 219.5 224.425781 218.9375 225.671875 218.34375 C 226.914062 217.746094 228.144531 217.121094 229.355469 216.464844 C 230.570312 215.808594 231.765625 215.121094 232.945312 214.40625 C 234.125 213.691406 235.285156 212.949219 236.429688 212.175781 C 237.570312 211.402344 238.691406 210.601562 239.796875 209.773438 C 240.898438 208.945312 241.980469 208.089844 243.042969 207.207031 C 244.101562 206.328125 245.140625 205.417969 246.15625 204.484375 C 247.171875 203.554688 248.164062 202.59375 249.132812 201.613281 C 250.101562 200.632812 251.042969 199.625 251.960938 198.597656 C 252.882812 197.570312 253.773438 196.519531 254.640625 195.445312 C 255.507812 194.371094 256.347656 193.277344 257.160156 192.164062 C 257.972656 191.050781 258.757812 189.917969 259.515625 188.761719 C 260.269531 187.609375 261 186.4375 261.699219 185.25 C 262.398438 184.0625 263.066406 182.855469 263.703125 181.632812 C 264.34375 180.410156 264.953125 179.175781 265.53125 177.921875 C 266.109375 176.667969 266.65625 175.402344 267.171875 174.125 C 267.6875 172.84375 268.171875 171.554688 268.621094 170.25 C 269.074219 168.949219 269.492188 167.632812 269.878906 166.3125 C 270.265625 164.988281 270.621094 163.65625 270.941406 162.3125 C 271.261719 160.972656 271.550781 159.625 271.804688 158.269531 C 272.058594 156.910156 272.28125 155.550781 272.46875 154.183594 C 272.652344 152.816406 272.808594 151.449219 272.925781 150.074219 C 273.046875 148.699219 273.132812 147.324219 273.183594 145.945312 C 273.234375 144.566406 273.25 143.1875 273.234375 141.808594 C 272.914062 115.425781 260.640625 91.296875 239.558594 75.617188 Z M 109.167969 157.523438 C 110.257812 157.117188 111.375 156.792969 112.515625 156.554688 C 112.851562 156.488281 113.195312 156.421875 113.535156 156.367188 L 114.070312 156.289062 L 114.101562 156.289062 L 114.476562 156.242188 C 115.160156 156.167969 115.851562 156.121094 116.542969 156.105469 C 117.238281 156.085938 117.988281 156.105469 118.710938 156.152344 C 119.054688 156.171875 119.394531 156.203125 119.742188 156.242188 L 120.140625 156.289062 L 120.308594 156.3125 L 120.585938 156.355469 C 121.976562 156.570312 123.332031 156.910156 124.65625 157.378906 L 125.082031 157.539062 L 125.292969 157.625 C 125.574219 157.738281 125.847656 157.871094 126.117188 158.007812 C 126.632812 158.265625 127.128906 158.558594 127.601562 158.882812 C 127.714844 158.964844 127.835938 159.042969 127.945312 159.128906 L 128.121094 159.277344 C 128.355469 159.472656 128.582031 159.675781 128.796875 159.894531 C 128.972656 160.0625 129.136719 160.246094 129.289062 160.441406 C 129.261719 160.40625 129.246094 160.390625 129.289062 160.480469 L 129.417969 160.660156 C 129.496094 160.777344 129.578125 160.902344 129.652344 161.03125 C 129.726562 161.152344 129.796875 161.28125 129.859375 161.414062 C 129.882812 161.457031 129.90625 161.5 129.921875 161.542969 C 129.925781 161.554688 129.925781 161.566406 129.921875 161.578125 C 130.054688 161.839844 130.136719 162.113281 130.175781 162.398438 C 130.210938 162.507812 130.234375 162.617188 130.242188 162.730469 L 130.242188 162.792969 C 130.246094 162.847656 130.246094 162.902344 130.242188 162.957031 C 130.257812 163.1875 130.257812 163.421875 130.242188 163.652344 C 130.242188 163.746094 130.160156 164.140625 130.242188 163.789062 C 130.222656 163.886719 130.210938 163.984375 130.191406 164.078125 C 130.164062 164.308594 130.125 164.535156 130.074219 164.757812 C 130.011719 164.945312 129.941406 165.125 129.871094 165.308594 L 129.808594 165.449219 L 129.648438 165.773438 C 129.429688 166.1875 129.183594 166.589844 128.917969 166.976562 C 128.796875 167.160156 128.667969 167.339844 128.535156 167.515625 C 128.46875 167.609375 128.398438 167.703125 128.328125 167.792969 C 128.285156 167.839844 128.25 167.894531 128.207031 167.945312 C 127.609375 168.710938 126.976562 169.449219 126.367188 170.207031 C 125.152344 171.730469 123.917969 173.414062 123.570312 175.378906 C 123.355469 176.523438 123.429688 177.644531 123.789062 178.75 C 124.207031 179.898438 124.816406 180.9375 125.617188 181.863281 C 126.363281 182.738281 127.152344 183.570312 127.980469 184.367188 C 128.40625 184.792969 128.808594 185.183594 129.203125 185.605469 C 129.386719 185.800781 129.566406 185.996094 129.742188 186.195312 L 130.03125 186.542969 L 130.128906 186.660156 L 130.199219 186.75 C 130.554688 187.226562 130.875 187.722656 131.164062 188.238281 C 131.292969 188.476562 131.417969 188.726562 131.535156 188.972656 C 131.597656 189.105469 131.65625 189.230469 131.710938 189.363281 L 131.828125 189.65625 C 132.035156 190.214844 132.207031 190.78125 132.34375 191.359375 C 132.40625 191.628906 132.460938 191.902344 132.511719 192.171875 C 132.511719 192.304688 132.5625 192.445312 132.574219 192.597656 C 132.574219 192.707031 132.597656 192.808594 132.609375 192.914062 C 132.667969 193.492188 132.6875 194.066406 132.675781 194.648438 C 132.675781 194.9375 132.65625 195.226562 132.628906 195.5 C 132.628906 195.65625 132.601562 195.8125 132.582031 195.96875 C 132.582031 195.96875 132.582031 196.082031 132.582031 196.109375 C 132.582031 196.140625 132.582031 196.199219 132.5625 196.242188 C 132.472656 196.820312 132.347656 197.386719 132.183594 197.945312 C 132.101562 198.222656 132.011719 198.496094 131.914062 198.765625 L 131.746094 199.191406 L 131.628906 199.453125 C 131.515625 199.695312 131.394531 199.929688 131.269531 200.164062 C 128.40625 197.269531 125.777344 194.175781 123.382812 190.882812 C 120.988281 187.589844 118.855469 184.136719 116.980469 180.519531 C 115.105469 176.90625 113.515625 173.171875 112.207031 169.316406 C 110.894531 165.460938 109.882812 161.53125 109.167969 157.523438 Z M 246.621094 193.027344 Z M 247.203125 197.691406 L 247.234375 197.761719 C 247.21875 197.738281 247.207031 197.710938 247.203125 197.683594 Z M 248.277344 199.539062 L 248.140625 199.351562 C 248.039062 199.214844 247.945312 199.074219 247.859375 198.925781 C 247.675781 198.640625 247.511719 198.34375 247.363281 198.039062 L 247.25 197.792969 C 247.179688 197.621094 247.117188 197.453125 247.058594 197.28125 C 246.949219 196.960938 246.855469 196.636719 246.777344 196.308594 C 246.742188 196.152344 246.714844 196 246.683594 195.847656 C 246.683594 195.757812 246.652344 195.671875 246.640625 195.582031 C 246.628906 195.492188 246.640625 195.515625 246.640625 195.503906 C 246.601562 195.167969 246.582031 194.824219 246.574219 194.484375 C 246.5625 194.144531 246.574219 193.808594 246.605469 193.472656 C 246.605469 193.382812 246.605469 193.289062 246.636719 193.199219 L 246.636719 193.160156 C 246.6875 192.984375 246.71875 192.808594 246.726562 192.625 C 246.792969 192.292969 246.878906 191.964844 246.976562 191.640625 C 247.023438 191.496094 247.074219 191.347656 247.128906 191.214844 C 247.1875 191.082031 247.199219 191.046875 247.226562 190.960938 C 247.257812 190.875 247.199219 191.023438 247.199219 191.023438 C 247.214844 190.976562 247.234375 190.929688 247.261719 190.882812 C 247.402344 190.574219 247.558594 190.277344 247.730469 189.984375 C 247.816406 189.839844 247.910156 189.695312 248.003906 189.558594 L 248.148438 189.355469 L 248.25 189.214844 C 248.703125 188.640625 249.207031 188.117188 249.757812 187.636719 C 250.035156 187.394531 250.320312 187.160156 250.609375 186.929688 L 250.667969 186.882812 L 250.90625 186.703125 L 251.359375 186.375 C 252.574219 185.523438 253.84375 184.726562 255.046875 183.851562 C 256.074219 183.089844 257.050781 182.265625 257.972656 181.382812 C 260 179.40625 261.910156 177.324219 263.699219 175.128906 C 264.324219 174.378906 264.9375 173.617188 265.550781 172.859375 C 263.574219 177.828125 261.132812 182.558594 258.226562 187.046875 C 255.320312 191.535156 252.003906 195.695312 248.277344 199.53125 Z M 248.277344 199.539062 " fill-opacity="1" fill-rule="nonzero"/></g><path fill="#336b87" d="M 186.601562 124.621094 C 186.894531 125.535156 187.347656 126.363281 187.953125 127.109375 C 188.5625 127.855469 189.285156 128.464844 190.121094 128.9375 C 191.0625 129.4375 192.066406 129.734375 193.128906 129.828125 C 194.191406 129.925781 195.230469 129.8125 196.246094 129.488281 C 198.234375 128.882812 200.007812 127.886719 201.5625 126.507812 C 201.914062 126.878906 202.273438 127.246094 202.648438 127.59375 C 204.222656 129.144531 206.089844 130.164062 208.246094 130.648438 C 210.613281 131.117188 213.015625 130.867188 215.398438 130.703125 C 217.554688 130.515625 219.703125 130.605469 221.835938 130.972656 C 225.957031 131.757812 229.796875 133.691406 232.546875 136.890625 C 233.867188 138.40625 234.847656 140.117188 235.488281 142.023438 C 236.128906 143.929688 236.378906 145.882812 236.238281 147.886719 C 236.152344 148.804688 235.972656 149.703125 235.695312 150.582031 C 235.441406 151.441406 235.097656 152.257812 234.664062 153.042969 C 233.78125 154.695312 232.660156 156.160156 231.292969 157.441406 C 229.917969 158.773438 228.394531 159.90625 226.726562 160.847656 C 224.949219 161.859375 223.082031 162.660156 221.121094 163.246094 C 216.496094 164.683594 211.664062 165.210938 206.871094 165.773438 C 202.386719 166.296875 197.882812 166.867188 193.546875 168.195312 C 189.414062 169.472656 185.4375 171.421875 182.300781 174.441406 C 179.027344 177.59375 176.898438 181.730469 173.546875 184.808594 C 172.085938 186.226562 170.382812 187.238281 168.441406 187.851562 C 167.496094 188.136719 166.53125 188.234375 165.546875 188.136719 C 165.460938 188.136719 165.375 188.128906 165.289062 188.113281 L 164.941406 188.042969 C 164.691406 187.988281 164.445312 187.917969 164.203125 187.828125 C 163.828125 187.667969 163.488281 187.453125 163.1875 187.175781 C 163.039062 187.039062 162.910156 186.886719 162.808594 186.710938 C 162.703125 186.542969 162.613281 186.367188 162.53125 186.1875 C 162.441406 185.953125 162.371094 185.714844 162.320312 185.46875 C 162.269531 185.273438 162.238281 185.074219 162.226562 184.871094 C 162.179688 184.375 162.179688 183.875 162.226562 183.378906 C 162.226562 183.273438 162.246094 183.164062 162.257812 183.058594 C 162.257812 183.03125 162.257812 182.914062 162.289062 182.878906 C 162.324219 182.664062 162.367188 182.453125 162.417969 182.234375 C 162.511719 181.800781 162.632812 181.375 162.773438 180.957031 C 162.847656 180.753906 162.921875 180.53125 163.003906 180.347656 C 163.003906 180.328125 163.003906 180.304688 163.003906 180.285156 L 163.035156 180.222656 C 163.082031 180.117188 163.128906 180.007812 163.179688 179.902344 C 163.554688 179.105469 163.988281 178.339844 164.480469 177.609375 C 164.726562 177.234375 164.988281 176.871094 165.261719 176.511719 C 165.484375 176.207031 165.6875 175.9375 166.003906 175.558594 C 166.589844 174.839844 167.199219 174.140625 167.816406 173.429688 C 169.054688 172.023438 170.320312 170.640625 171.480469 169.171875 C 172.761719 167.640625 173.808594 165.960938 174.621094 164.136719 C 175.433594 162.308594 175.976562 160.40625 176.25 158.429688 C 176.894531 154.3125 176.703125 150.140625 176.542969 145.992188 C 176.460938 143.925781 176.386719 141.855469 176.429688 139.789062 C 176.457031 138.769531 176.503906 137.757812 176.601562 136.742188 C 176.6875 135.796875 176.828125 134.863281 177.027344 133.933594 C 177.382812 132.070312 177.996094 130.296875 178.863281 128.609375 C 178.996094 128.359375 179.027344 128.101562 178.957031 127.828125 C 178.886719 127.554688 178.730469 127.34375 178.492188 127.195312 C 178.246094 127.054688 177.984375 127.023438 177.710938 127.09375 C 177.4375 127.164062 177.226562 127.324219 177.082031 127.566406 C 175.085938 131.371094 174.46875 135.652344 174.382812 139.910156 C 174.296875 144.167969 174.707031 148.425781 174.65625 152.679688 C 174.664062 154.734375 174.496094 156.773438 174.148438 158.796875 C 173.792969 160.777344 173.148438 162.660156 172.214844 164.445312 C 170.417969 167.804688 167.714844 170.382812 165.21875 173.324219 C 162.71875 176.265625 160.496094 179.515625 160.15625 183.460938 C 159.964844 185.71875 160.632812 188.171875 162.710938 189.367188 C 164.6875 190.503906 167.265625 190.390625 169.371094 189.699219 C 173.894531 188.222656 176.890625 184.421875 179.640625 180.761719 C 180.992188 178.84375 182.511719 177.074219 184.199219 175.449219 C 185.792969 174.03125 187.554688 172.863281 189.476562 171.945312 C 193.308594 170.058594 197.71875 169.070312 202.007812 168.429688 C 206.960938 167.6875 211.976562 167.359375 216.90625 166.394531 C 221.363281 165.515625 225.757812 164.078125 229.527344 161.488281 C 232.933594 159.167969 235.777344 156.058594 237.296875 152.199219 C 238.90625 148.117188 238.542969 143.585938 236.730469 139.636719 C 235.773438 137.625 234.496094 135.839844 232.902344 134.285156 C 231.304688 132.730469 229.488281 131.5 227.449219 130.597656 C 225.3125 129.636719 223.082031 129.011719 220.753906 128.722656 C 218.433594 128.425781 216.140625 128.582031 213.816406 128.75 C 212.597656 128.855469 211.378906 128.878906 210.160156 128.820312 C 209.609375 128.792969 209.066406 128.71875 208.527344 128.59375 C 208.269531 128.539062 208.011719 128.472656 207.757812 128.390625 L 207.332031 128.242188 L 207.046875 128.128906 C 205.519531 127.394531 204.203125 126.390625 203.09375 125.109375 C 204.394531 123.832031 205.617188 122.46875 206.863281 121.1875 C 208.289062 119.625 209.933594 118.347656 211.800781 117.355469 C 212.042969 117.210938 212.203125 117 212.273438 116.726562 C 212.347656 116.453125 212.3125 116.195312 212.171875 115.949219 C 212.023438 115.707031 211.8125 115.550781 211.539062 115.480469 C 211.265625 115.40625 211.007812 115.441406 210.757812 115.578125 C 207.054688 117.417969 204.625 120.804688 201.726562 123.625 C 200.636719 122.300781 199.429688 121.105469 198.09375 120.03125 C 196.542969 118.882812 194.8125 118.199219 192.898438 117.96875 C 191.996094 117.832031 191.105469 117.894531 190.234375 118.15625 C 189.359375 118.417969 188.582031 118.851562 187.902344 119.460938 C 187.566406 119.789062 187.285156 120.15625 187.050781 120.5625 C 186.816406 120.972656 186.640625 121.402344 186.527344 121.855469 C 186.414062 122.3125 186.359375 122.773438 186.375 123.242188 C 186.386719 123.710938 186.460938 124.171875 186.601562 124.621094 Z M 189.410156 125.632812 C 189.324219 125.53125 189.394531 125.617188 189.410156 125.632812 Z M 188.625 121.941406 Z M 188.445312 122.632812 C 188.445312 122.691406 188.445312 122.695312 188.445312 122.632812 Z M 188.445312 122.738281 C 188.445312 122.699219 188.445312 122.660156 188.445312 122.625 C 188.480469 122.445312 188.519531 122.269531 188.574219 122.09375 C 188.574219 122.042969 188.613281 121.992188 188.632812 121.9375 C 188.648438 121.882812 188.71875 121.753906 188.773438 121.660156 L 188.921875 121.414062 L 189.019531 121.277344 C 189.140625 121.125 189.269531 120.984375 189.414062 120.851562 C 189.460938 120.808594 189.511719 120.761719 189.566406 120.71875 L 189.6875 120.632812 C 189.855469 120.519531 190.03125 120.417969 190.214844 120.328125 C 190.253906 120.328125 190.328125 120.277344 190.351562 120.269531 L 190.535156 120.207031 C 190.730469 120.140625 190.929688 120.089844 191.132812 120.046875 L 191.328125 120.011719 L 191.484375 120.011719 C 191.699219 119.992188 191.914062 119.988281 192.128906 119.992188 C 192.316406 119.992188 192.503906 119.992188 192.691406 120.023438 L 192.863281 120.023438 L 193.183594 120.078125 C 193.601562 120.160156 194.015625 120.269531 194.421875 120.40625 C 194.597656 120.464844 194.769531 120.527344 194.945312 120.601562 L 195.152344 120.691406 L 195.472656 120.839844 C 195.859375 121.035156 196.234375 121.253906 196.597656 121.492188 C 196.75 121.59375 196.898438 121.699219 197.046875 121.808594 L 197.214844 121.941406 L 197.46875 122.164062 C 197.839844 122.496094 198.195312 122.84375 198.542969 123.207031 C 199.101562 123.785156 199.644531 124.390625 200.179688 124.996094 C 198.90625 126.097656 197.46875 126.921875 195.867188 127.460938 C 194.917969 127.757812 193.945312 127.863281 192.953125 127.777344 L 192.835938 127.777344 L 192.550781 127.722656 C 192.328125 127.671875 192.109375 127.605469 191.890625 127.527344 L 191.730469 127.46875 L 191.507812 127.367188 C 191.300781 127.261719 191.101562 127.148438 190.90625 127.023438 C 190.746094 126.925781 190.59375 126.820312 190.445312 126.710938 C 190.414062 126.679688 190.300781 126.585938 190.277344 126.570312 C 190.1875 126.492188 190.105469 126.417969 190.023438 126.335938 C 189.875 126.199219 189.730469 126.058594 189.597656 125.910156 C 189.523438 125.828125 189.457031 125.742188 189.390625 125.660156 L 189.273438 125.503906 C 189.167969 125.34375 189.0625 125.179688 188.96875 125.015625 C 188.914062 124.917969 188.859375 124.820312 188.808594 124.722656 C 188.808594 124.6875 188.746094 124.578125 188.726562 124.539062 C 188.585938 124.195312 188.488281 123.839844 188.425781 123.472656 C 188.425781 123.441406 188.425781 123.382812 188.425781 123.34375 C 188.425781 123.304688 188.425781 123.164062 188.425781 123.074219 C 188.425781 122.984375 188.429688 122.839844 188.433594 122.738281 Z M 188.445312 122.738281 " fill-opacity="1" fill-rule="nonzero"/><path fill="#336b87" d="M 225.382812 207.554688 C 225.648438 207.554688 225.917969 207.554688 226.183594 207.554688 C 226.402344 207.546875 226.621094 207.5625 226.835938 207.597656 L 226.902344 207.597656 L 227.042969 207.621094 C 227.183594 207.652344 227.320312 207.6875 227.46875 207.722656 C 227.578125 207.753906 227.6875 207.789062 227.796875 207.832031 L 227.835938 207.832031 L 227.921875 207.867188 C 228.023438 207.914062 228.117188 207.96875 228.210938 208.027344 L 228.347656 208.117188 C 228.429688 208.183594 228.507812 208.257812 228.582031 208.335938 L 228.667969 208.429688 C 228.722656 208.515625 228.777344 208.597656 228.824219 208.6875 C 228.871094 208.777344 228.875 208.78125 228.898438 208.828125 C 228.898438 208.835938 228.898438 208.847656 228.898438 208.855469 C 228.980469 209.128906 229.144531 209.332031 229.390625 209.472656 C 229.640625 209.613281 229.898438 209.644531 230.175781 209.574219 C 230.308594 209.539062 230.425781 209.476562 230.535156 209.390625 C 230.640625 209.308594 230.730469 209.203125 230.796875 209.085938 C 230.863281 208.964844 230.90625 208.835938 230.921875 208.703125 C 230.941406 208.566406 230.929688 208.429688 230.894531 208.296875 C 230.6875 207.722656 230.367188 207.21875 229.933594 206.785156 C 229.5 206.355469 228.992188 206.035156 228.417969 205.828125 C 227.351562 205.460938 226.261719 205.335938 225.144531 205.460938 C 224.007812 205.601562 222.886719 205.820312 221.78125 206.125 C 221.511719 206.183594 221.242188 206.242188 220.972656 206.289062 C 220.839844 206.316406 220.703125 206.339844 220.566406 206.359375 L 220.40625 206.382812 L 220.269531 206.382812 C 219.722656 206.46875 219.171875 206.5 218.617188 206.476562 L 218.441406 206.476562 C 218.320312 206.457031 218.199219 206.425781 218.082031 206.394531 C 217.960938 206.367188 217.847656 206.328125 217.730469 206.285156 L 217.667969 206.257812 L 217.617188 206.257812 L 217.523438 206.203125 C 217.417969 206.148438 217.320312 206.082031 217.214844 206.019531 L 217.105469 205.925781 C 217.015625 205.84375 216.9375 205.75 216.851562 205.664062 L 216.707031 205.4375 C 216.660156 205.355469 216.617188 205.273438 216.574219 205.1875 L 216.574219 205.160156 C 216.511719 205.007812 216.457031 204.847656 216.417969 204.683594 C 216.328125 204.367188 216.261719 204.035156 216.203125 203.707031 C 216.113281 203.0625 215.972656 202.433594 215.777344 201.816406 C 215.367188 200.722656 214.753906 199.761719 213.9375 198.929688 C 213.125 198.09375 212.175781 197.457031 211.09375 197.023438 C 209.992188 196.542969 208.839844 196.253906 207.640625 196.148438 C 206.441406 196.046875 205.257812 196.136719 204.089844 196.417969 C 201.359375 197.085938 198.953125 198.652344 196.851562 200.496094 C 194.832031 202.273438 193.15625 204.359375 191.375 206.367188 C 190.503906 207.367188 189.566406 208.304688 188.566406 209.183594 L 188.210938 209.480469 L 188.019531 209.636719 L 187.976562 209.664062 C 187.703125 209.871094 187.421875 210.089844 187.125 210.257812 C 186.5625 210.625 185.972656 210.941406 185.359375 211.210938 L 185.328125 211.210938 L 185.269531 211.230469 L 185.019531 211.324219 L 184.472656 211.515625 C 184.117188 211.632812 183.761719 211.730469 183.402344 211.820312 C 182.664062 212.003906 181.914062 212.136719 181.164062 212.246094 C 179.707031 212.445312 178.261719 212.71875 176.832031 213.0625 C 174.433594 213.714844 171.980469 215.035156 170.6875 217.234375 C 170.363281 217.785156 170.128906 218.371094 169.984375 218.992188 C 169.949219 219.125 169.941406 219.257812 169.957031 219.394531 C 169.972656 219.527344 170.015625 219.65625 170.082031 219.773438 C 170.152344 219.894531 170.238281 219.996094 170.347656 220.078125 C 170.453125 220.164062 170.574219 220.222656 170.707031 220.257812 C 170.835938 220.296875 170.972656 220.304688 171.105469 220.289062 C 171.242188 220.273438 171.371094 220.230469 171.488281 220.164062 C 171.605469 220.09375 171.707031 220.007812 171.792969 219.898438 C 171.875 219.792969 171.9375 219.671875 171.972656 219.542969 C 172.03125 219.296875 172.105469 219.058594 172.191406 218.828125 C 172.191406 218.851562 172.285156 218.609375 172.308594 218.558594 C 172.386719 218.414062 172.46875 218.269531 172.550781 218.132812 C 172.625 218.015625 172.703125 217.90625 172.777344 217.796875 L 172.914062 217.628906 C 173.101562 217.414062 173.300781 217.207031 173.515625 217.015625 C 173.617188 216.921875 173.722656 216.832031 173.828125 216.746094 L 173.914062 216.679688 L 174.019531 216.601562 C 174.265625 216.429688 174.515625 216.269531 174.769531 216.117188 C 175.027344 215.96875 175.273438 215.84375 175.527344 215.71875 L 175.882812 215.5625 L 175.953125 215.527344 L 176.234375 215.421875 C 178.855469 214.4375 181.71875 214.417969 184.402344 213.675781 C 185.785156 213.300781 187.078125 212.71875 188.273438 211.929688 C 189.398438 211.167969 190.433594 210.296875 191.382812 209.324219 C 193.21875 207.472656 194.785156 205.386719 196.621094 203.519531 C 197.089844 203.03125 197.570312 202.566406 198.074219 202.113281 C 198.296875 201.910156 198.527344 201.714844 198.757812 201.515625 L 199.128906 201.210938 L 199.316406 201.0625 L 199.363281 201.023438 L 199.410156 200.992188 C 200.449219 200.195312 201.5625 199.527344 202.753906 198.984375 L 203.027344 198.875 L 203.453125 198.710938 C 203.765625 198.601562 204.078125 198.507812 204.398438 198.421875 C 204.71875 198.335938 204.953125 198.285156 205.25 198.234375 C 205.308594 198.234375 205.71875 198.132812 205.433594 198.207031 C 205.585938 198.175781 205.738281 198.160156 205.894531 198.160156 C 206.414062 198.117188 206.933594 198.117188 207.453125 198.160156 L 207.839844 198.195312 L 207.871094 198.195312 L 208.027344 198.21875 C 208.3125 198.269531 208.585938 198.324219 208.878906 198.398438 C 209.167969 198.46875 209.375 198.535156 209.617188 198.617188 L 209.984375 198.75 L 210.125 198.804688 L 210.148438 198.804688 L 210.195312 198.828125 C 210.671875 199.042969 211.125 199.292969 211.558594 199.582031 L 211.796875 199.753906 L 212.007812 199.917969 C 212.210938 200.09375 212.410156 200.28125 212.597656 200.480469 C 212.683594 200.566406 212.765625 200.660156 212.84375 200.753906 L 212.9375 200.867188 C 213.078125 201.066406 213.21875 201.265625 213.34375 201.480469 C 213.453125 201.675781 213.550781 201.875 213.640625 202.078125 C 213.640625 202.140625 213.71875 202.273438 213.734375 202.316406 C 213.78125 202.460938 213.828125 202.605469 213.867188 202.742188 C 214.039062 203.394531 214.109375 204.066406 214.253906 204.722656 C 214.363281 205.382812 214.601562 205.988281 214.972656 206.542969 C 215.34375 207.097656 215.816406 207.546875 216.382812 207.898438 C 218.453125 209.0625 221.066406 208.503906 223.242188 207.925781 C 223.746094 207.765625 224.257812 207.65625 224.785156 207.601562 C 224.492188 207.621094 224.902344 207.601562 224.96875 207.601562 Z M 188.019531 209.515625 Z M 216.488281 205.03125 C 216.46875 204.992188 216.488281 205.003906 216.488281 205.03125 Z M 217.613281 206.207031 L 217.707031 206.246094 C 217.707031 206.246094 217.652344 206.230469 217.613281 206.207031 Z M 218.492188 206.457031 L 218.578125 206.457031 C 218.550781 206.46875 218.523438 206.476562 218.492188 206.476562 Z M 218.492188 206.457031 " fill-opacity="1" fill-rule="nonzero"/><path fill="#336b87" d="M 127.640625 171.921875 L 127.609375 171.964844 C 127.570312 171.996094 127.519531 172.113281 127.640625 171.921875 Z M 127.640625 171.921875 " fill-opacity="1" fill-rule="nonzero"/><path fill="#336b87" d="M 128.339844 167.796875 C 128.164062 167.992188 128.296875 167.851562 128.339844 167.796875 Z M 128.339844 167.796875 " fill-opacity="1" fill-rule="nonzero"/><path fill="#336b87" d="M 125.558594 176.0625 C 125.621094 175.828125 125.570312 175.980469 125.558594 176.0625 Z M 125.558594 176.0625 " fill-opacity="1" fill-rule="nonzero"/><path fill="#336b87" d="M 198.746094 59.296875 L 198.777344 59.226562 Z M 198.746094 59.296875 " fill-opacity="1" fill-rule="nonzero"/><g clip-path="url(#43a6424aa8)"><path fill="#336b87" d="M 204.167969 93.667969 C 207.253906 98.691406 210.527344 103.59375 213.601562 108.625 C 214.039062 109.34375 214.476562 110.066406 214.914062 110.792969 C 215.007812 110.949219 215.136719 111.070312 215.292969 111.160156 C 215.453125 111.246094 215.621094 111.292969 215.804688 111.292969 C 215.984375 111.292969 216.15625 111.246094 216.3125 111.160156 C 216.472656 111.070312 216.597656 110.949219 216.691406 110.792969 C 219.734375 106.34375 222.492188 101.722656 224.96875 96.933594 C 226.15625 94.707031 227.3125 92.460938 228.496094 90.234375 C 229.722656 87.929688 230.925781 85.632812 231.902344 83.214844 C 233.910156 78.347656 235.136719 73.292969 235.582031 68.042969 C 235.8125 65.546875 235.8125 63.050781 235.582031 60.554688 C 235.402344 58.445312 234.867188 56.425781 233.972656 54.503906 C 233.058594 52.652344 231.753906 51.140625 230.050781 49.96875 C 228.050781 48.636719 225.851562 47.855469 223.457031 47.628906 C 221.015625 47.355469 218.703125 47.792969 216.527344 48.933594 C 215.472656 49.53125 214.496094 50.242188 213.605469 51.0625 C 212.773438 51.804688 212.011719 52.613281 211.320312 53.488281 C 208.429688 57.152344 206.789062 61.792969 207.359375 66.476562 C 207.910156 70.964844 210.289062 75.644531 214.472656 77.746094 C 216.433594 78.734375 218.855469 79.234375 220.960938 78.394531 C 223.378906 77.425781 224.660156 75.167969 225.382812 72.777344 C 226.101562 70.390625 226.359375 67.578125 225.503906 65.117188 C 225.117188 63.960938 224.5 62.949219 223.652344 62.074219 C 222.804688 61.199219 221.808594 60.550781 220.664062 60.132812 C 219.574219 59.75 218.464844 59.675781 217.332031 59.910156 C 217.199219 59.945312 217.078125 60.007812 216.96875 60.089844 C 216.863281 60.175781 216.773438 60.277344 216.707031 60.398438 C 216.640625 60.519531 216.597656 60.648438 216.582031 60.785156 C 216.566406 60.917969 216.574219 61.054688 216.613281 61.1875 C 216.695312 61.457031 216.859375 61.664062 217.105469 61.804688 C 217.351562 61.945312 217.613281 61.980469 217.890625 61.910156 C 217.933594 61.910156 218.15625 61.871094 218.144531 61.867188 L 218.445312 61.867188 C 218.671875 61.863281 218.894531 61.875 219.117188 61.898438 L 219.367188 61.941406 C 219.488281 61.964844 219.609375 61.992188 219.726562 62.023438 L 220.035156 62.125 L 220.308594 62.226562 C 220.742188 62.417969 221.148438 62.65625 221.527344 62.941406 L 221.730469 63.101562 L 221.976562 63.324219 C 222.171875 63.511719 222.359375 63.707031 222.535156 63.914062 L 222.640625 64.050781 L 222.664062 64.082031 C 222.730469 64.175781 222.792969 64.265625 222.851562 64.359375 C 223.003906 64.582031 223.136719 64.8125 223.257812 65.054688 C 223.359375 65.246094 223.441406 65.441406 223.507812 65.644531 C 223.609375 65.9375 223.699219 66.234375 223.773438 66.539062 C 223.90625 67.054688 223.976562 67.582031 223.984375 68.117188 C 224.007812 68.710938 223.980469 69.304688 223.914062 69.894531 C 223.914062 69.953125 223.914062 70.007812 223.914062 70.0625 C 223.910156 70.078125 223.910156 70.09375 223.914062 70.109375 C 223.886719 70.257812 223.867188 70.402344 223.835938 70.535156 C 223.785156 70.828125 223.722656 71.117188 223.648438 71.410156 C 223.511719 71.972656 223.34375 72.527344 223.140625 73.066406 C 223.09375 73.199219 223.042969 73.332031 222.992188 73.460938 L 222.992188 73.484375 L 222.875 73.660156 C 222.746094 73.929688 222.605469 74.1875 222.449219 74.441406 C 222.214844 74.886719 221.917969 75.277344 221.550781 75.617188 C 221.453125 75.710938 221.355469 75.800781 221.246094 75.890625 L 221.222656 75.890625 L 221.101562 75.976562 C 220.890625 76.125 220.667969 76.253906 220.433594 76.363281 L 220.339844 76.410156 L 220.3125 76.410156 L 219.976562 76.523438 C 219.738281 76.59375 219.496094 76.648438 219.25 76.6875 L 219.109375 76.6875 C 218.992188 76.6875 218.871094 76.6875 218.75 76.6875 C 218.492188 76.691406 218.234375 76.683594 217.980469 76.660156 L 217.769531 76.636719 L 217.476562 76.578125 C 217.230469 76.53125 216.988281 76.46875 216.75 76.402344 C 216.511719 76.332031 216.265625 76.238281 216.027344 76.148438 L 215.976562 76.214844 L 215.859375 76.160156 C 215.738281 76.105469 215.625 76.050781 215.507812 75.992188 C 215.050781 75.761719 214.613281 75.496094 214.195312 75.199219 L 213.980469 75.039062 L 213.730469 74.835938 C 213.535156 74.667969 213.347656 74.492188 213.167969 74.316406 C 212.796875 73.945312 212.449219 73.550781 212.121094 73.140625 L 212.09375 73.105469 L 211.976562 72.945312 L 211.746094 72.625 C 211.597656 72.40625 211.457031 72.199219 211.320312 71.957031 C 211.042969 71.507812 210.796875 71.039062 210.574219 70.558594 L 210.433594 70.246094 L 210.347656 70.03125 C 210.242188 69.773438 210.148438 69.507812 210.0625 69.242188 C 209.890625 68.738281 209.75 68.226562 209.636719 67.707031 C 209.582031 67.464844 209.535156 67.21875 209.496094 66.976562 C 209.46875 66.84375 209.453125 66.710938 209.429688 66.582031 C 209.429688 66.496094 209.429688 66.40625 209.398438 66.320312 C 209.339844 65.792969 209.3125 65.261719 209.308594 64.726562 C 209.304688 64.195312 209.328125 63.664062 209.378906 63.136719 L 209.417969 62.792969 L 209.417969 62.761719 L 209.445312 62.574219 C 209.484375 62.304688 209.53125 62.042969 209.589844 61.78125 C 209.699219 61.253906 209.835938 60.734375 209.992188 60.222656 C 210.070312 59.984375 210.148438 59.746094 210.234375 59.511719 C 210.28125 59.386719 210.328125 59.261719 210.378906 59.136719 C 210.402344 59.074219 210.425781 59.011719 210.453125 58.953125 L 210.453125 58.871094 C 210.875 57.882812 211.386719 56.9375 211.984375 56.042969 C 212.121094 55.835938 212.265625 55.617188 212.410156 55.421875 C 212.488281 55.3125 212.566406 55.207031 212.648438 55.097656 L 212.695312 55.035156 L 212.832031 54.871094 C 213.167969 54.445312 213.523438 54.042969 213.894531 53.652344 C 214.269531 53.261719 214.632812 52.910156 215.019531 52.5625 C 215.21875 52.382812 215.445312 52.207031 215.632812 52.035156 L 215.949219 51.78125 L 216.003906 51.742188 L 216.140625 51.636719 C 216.578125 51.304688 217.042969 51.007812 217.527344 50.746094 C 217.757812 50.621094 217.992188 50.503906 218.230469 50.398438 C 218.273438 50.398438 218.414062 50.328125 218.4375 50.3125 L 218.863281 50.160156 C 219.378906 49.992188 219.902344 49.863281 220.433594 49.769531 L 220.707031 49.730469 C 220.828125 49.714844 220.945312 49.703125 221.066406 49.691406 C 221.332031 49.667969 221.605469 49.65625 221.878906 49.648438 C 224.019531 49.609375 226.03125 50.09375 227.921875 51.097656 C 228.351562 51.328125 228.761719 51.582031 229.15625 51.863281 L 229.394531 52.042969 L 229.527344 52.152344 C 229.722656 52.3125 229.902344 52.472656 230.078125 52.636719 C 230.394531 52.941406 230.6875 53.261719 230.960938 53.601562 C 230.996094 53.644531 231.03125 53.679688 231.058594 53.722656 C 231.117188 53.804688 231.179688 53.882812 231.234375 53.957031 C 231.371094 54.152344 231.503906 54.355469 231.625 54.554688 C 231.863281 54.9375 232.078125 55.332031 232.269531 55.742188 C 232.316406 55.84375 232.359375 55.949219 232.410156 56.050781 C 232.425781 56.085938 232.441406 56.121094 232.453125 56.15625 C 232.546875 56.378906 232.632812 56.609375 232.707031 56.839844 C 233.011719 57.742188 233.238281 58.664062 233.390625 59.601562 C 233.390625 59.710938 233.417969 59.816406 233.4375 59.921875 C 233.4375 59.960938 233.4375 60 233.4375 60.039062 C 233.4375 60.058594 233.4375 60.082031 233.4375 60.105469 C 233.464844 60.351562 233.496094 60.597656 233.515625 60.851562 C 233.566406 61.398438 233.597656 61.957031 233.617188 62.511719 C 233.664062 63.746094 233.664062 64.980469 233.617188 66.210938 C 233.523438 68.625 233.230469 71.019531 232.742188 73.386719 C 232.246094 75.8125 231.578125 78.1875 230.738281 80.515625 C 229.921875 82.785156 228.945312 84.980469 227.8125 87.105469 C 226.710938 89.191406 225.59375 91.277344 224.496094 93.371094 C 222.152344 97.847656 219.757812 102.308594 217.03125 106.566406 C 216.636719 107.179688 216.234375 107.792969 215.824219 108.394531 C 212.976562 103.714844 209.984375 99.128906 207.066406 94.492188 C 205.75 92.390625 204.453125 90.269531 203.238281 88.109375 C 202.671875 87.085938 202.121094 86.046875 201.601562 84.996094 C 201.351562 84.492188 201.109375 83.980469 200.875 83.464844 L 200.566406 82.773438 L 200.402344 82.390625 L 200.367188 82.3125 C 200.367188 82.289062 200.285156 82.117188 200.277344 82.097656 C 199.433594 80.046875 198.757812 77.945312 198.246094 75.789062 C 197.984375 74.679688 197.765625 73.558594 197.601562 72.429688 L 197.550781 72.070312 C 197.550781 72.070312 197.519531 71.84375 197.511719 71.789062 C 197.472656 71.480469 197.4375 71.167969 197.40625 70.859375 C 197.34375 70.257812 197.292969 69.652344 197.261719 69.046875 C 197.171875 67.808594 197.171875 66.574219 197.261719 65.335938 C 197.261719 65.046875 197.3125 64.761719 197.34375 64.484375 C 197.34375 64.429688 197.382812 64.226562 197.34375 64.441406 L 197.371094 64.261719 C 197.394531 64.082031 197.425781 63.902344 197.460938 63.71875 C 197.566406 63.121094 197.699219 62.527344 197.859375 61.941406 C 198.023438 61.351562 198.203125 60.769531 198.414062 60.199219 C 198.515625 59.910156 198.628906 59.628906 198.746094 59.347656 C 198.757812 59.324219 198.765625 59.304688 198.777344 59.28125 C 198.796875 59.238281 198.8125 59.191406 198.835938 59.148438 C 198.902344 58.988281 198.972656 58.839844 199.042969 58.6875 C 199.5625 57.578125 200.171875 56.515625 200.863281 55.503906 C 201.035156 55.253906 201.210938 55 201.394531 54.753906 L 201.503906 54.609375 L 201.597656 54.484375 C 201.632812 54.445312 201.683594 54.375 201.683594 54.378906 L 201.851562 54.167969 C 202.242188 53.691406 202.648438 53.230469 203.066406 52.789062 C 203.492188 52.363281 203.917969 51.9375 204.386719 51.511719 C 204.613281 51.304688 204.847656 51.109375 205.078125 50.914062 L 205.402344 50.65625 L 205.527344 50.558594 L 205.664062 50.449219 C 206.640625 49.714844 207.675781 49.070312 208.761719 48.507812 C 209.03125 48.375 209.308594 48.238281 209.582031 48.109375 L 210.007812 47.925781 L 210.0625 47.925781 L 210.269531 47.839844 C 210.835938 47.609375 211.414062 47.414062 211.996094 47.238281 C 212.582031 47.058594 213.179688 46.917969 213.78125 46.8125 C 213.914062 46.773438 214.035156 46.710938 214.140625 46.628906 C 214.25 46.542969 214.335938 46.441406 214.40625 46.320312 C 214.472656 46.203125 214.515625 46.074219 214.53125 45.9375 C 214.546875 45.800781 214.539062 45.667969 214.5 45.535156 C 214.417969 45.261719 214.253906 45.054688 214.007812 44.917969 C 213.761719 44.777344 213.5 44.742188 213.222656 44.8125 C 210.707031 45.351562 208.355469 46.292969 206.164062 47.640625 C 203.972656 48.988281 202.066406 50.664062 200.453125 52.664062 C 197.183594 56.652344 195.144531 61.664062 195.121094 66.855469 C 195.125 71.699219 195.960938 76.390625 197.632812 80.933594 C 199.292969 85.378906 201.65625 89.59375 204.167969 93.667969 Z M 222.613281 64.011719 Z M 222.613281 64.011719 " fill-opacity="1" fill-rule="nonzero"/></g><g fill="#336b87" fill-opacity="1"><g transform="translate(39.194756, 273.366193)"><g><path d="M 14.667969 0 L 14.667969 -24.601562 L 22.324219 -24.601562 L 22.324219 -30.710938 L 0.859375 -30.710938 L 0.859375 -24.601562 L 8.515625 -24.601562 L 8.515625 0 Z M 14.667969 0 "/></g></g></g><g fill="#336b87" fill-opacity="1"><g transform="translate(62.720019, 273.366193)"><g><path d="M 24.945312 0 L 24.945312 -30.753906 L 18.796875 -30.753906 L 18.796875 -18.453125 L 9.589844 -18.453125 L 9.589844 -30.753906 L 3.441406 -30.753906 L 3.441406 0 L 9.589844 0 L 9.589844 -12.300781 L 18.796875 -12.300781 L 18.796875 0 Z M 24.945312 0 "/></g></g></g><g fill="#336b87" fill-opacity="1"><g transform="translate(91.148171, 273.366193)"><g><path d="M 10.96875 0 L 17.074219 0 L 17.074219 -13.851562 L 27.828125 -30.753906 L 20.300781 -30.753906 L 14.023438 -20.171875 L 7.742188 -30.753906 L 0.257812 -30.753906 L 10.96875 -13.851562 Z M 10.96875 0 "/></g></g></g><g fill="#336b87" fill-opacity="1"><g transform="translate(119.060229, 273.366193)"><g><path d="M 9.589844 -16.730469 L 25.164062 0.644531 L 26.796875 0.644531 L 26.796875 -30.710938 L 20.601562 -30.710938 L 20.601562 -13.332031 L 5.074219 -31.398438 L 3.441406 -31.398438 L 3.441406 0 L 9.589844 0 Z M 9.589844 -16.730469 "/></g></g></g><g fill="#336b87" fill-opacity="1"><g transform="translate(149.337712, 273.366193)"><g><path d="M 3.441406 0 L 9.589844 0 L 9.589844 -12.042969 L 17.765625 0 L 25.378906 0 L 14.539062 -15.570312 L 24.515625 -30.753906 L 17.335938 -30.753906 L 9.589844 -18.496094 L 9.589844 -30.753906 L 3.441406 -30.753906 Z M 3.441406 0 "/></g></g></g><g fill="#336b87" fill-opacity="1"><g transform="translate(175.314414, 273.366193)"><g/></g></g><g fill="#336b87" fill-opacity="1"><g transform="translate(187.528624, 273.366193)"><g><path d="M 14.667969 0 L 14.667969 -24.601562 L 22.324219 -24.601562 L 22.324219 -30.710938 L 0.859375 -30.710938 L 0.859375 -24.601562 L 8.515625 -24.601562 L 8.515625 0 Z M 14.667969 0 "/></g></g></g><g fill="#336b87" fill-opacity="1"><g transform="translate(211.053887, 273.366193)"><g><path d="M 18.753906 0 L 25.722656 0 L 18.582031 -12.6875 C 27.613281 -15.3125 26.539062 -30.753906 15.570312 -30.753906 L 3.441406 -30.753906 L 3.441406 0 L 9.589844 0 L 9.589844 -11.742188 L 12.558594 -11.742188 Z M 9.589844 -17.722656 L 9.589844 -24.601562 L 15.011719 -24.601562 C 19.183594 -24.601562 19.183594 -17.722656 15.011719 -17.722656 Z M 9.589844 -17.722656 "/></g></g></g><g fill="#336b87" fill-opacity="1"><g transform="translate(237.417674, 273.366193)"><g><path d="M 0.6875 0 L 7.65625 0 L 8.859375 -3.3125 L 19.054688 -3.3125 L 20.300781 0 L 27.226562 0 L 14.28125 -31.871094 L 13.636719 -31.871094 Z M 11.097656 -9.074219 L 13.980469 -17.074219 L 16.773438 -9.074219 Z M 11.097656 -9.074219 "/></g></g></g><g fill="#336b87" fill-opacity="1"><g transform="translate(265.501748, 273.366193)"><g><path d="M 12.988281 0.644531 L 14.367188 0.644531 L 27.097656 -30.753906 L 20 -30.753906 L 15.871094 -20.300781 L 13.679688 -14.152344 L 11.441406 -20.515625 L 7.355469 -30.753906 L 0.257812 -30.753906 Z M 12.988281 0.644531 "/></g></g></g><g fill="#336b87" fill-opacity="1"><g transform="translate(292.897712, 273.366193)"><g><path d="M 19.355469 0 L 19.355469 -6.152344 L 9.589844 -6.152344 L 9.589844 -12.300781 L 17.679688 -12.300781 L 17.679688 -18.453125 L 9.589844 -18.453125 L 9.589844 -24.601562 L 18.839844 -24.601562 L 18.839844 -30.753906 L 3.441406 -30.753906 L 3.441406 0 Z M 19.355469 0 "/></g></g></g><g fill="#336b87" fill-opacity="1"><g transform="translate(314.573644, 273.366193)"><g><path d="M 3.441406 -30.753906 L 3.441406 0 L 19.355469 0 L 19.355469 -6.152344 L 9.589844 -6.152344 L 9.589844 -30.753906 Z M 3.441406 -30.753906 "/></g></g></g><g fill="#336b87" fill-opacity="1"><g transform="translate(92.079448, 310.330496)"><g><path d="M 6.0625 0.21875 C 5.789062 0.21875 5.578125 0.128906 5.421875 -0.046875 C 5.273438 -0.234375 5.203125 -0.4375 5.203125 -0.65625 L 5.203125 -13.640625 L 1.078125 -13.640625 C 0.804688 -13.640625 0.59375 -13.710938 0.4375 -13.859375 C 0.289062 -14.003906 0.21875 -14.1875 0.21875 -14.40625 C 0.21875 -14.613281 0.289062 -14.789062 0.4375 -14.9375 C 0.59375 -15.082031 0.804688 -15.15625 1.078125 -15.15625 L 11.046875 -15.15625 C 11.316406 -15.15625 11.523438 -15.082031 11.671875 -14.9375 C 11.828125 -14.789062 11.90625 -14.613281 11.90625 -14.40625 C 11.90625 -14.1875 11.828125 -14.003906 11.671875 -13.859375 C 11.523438 -13.710938 11.316406 -13.640625 11.046875 -13.640625 L 6.9375 -13.640625 L 6.9375 -0.65625 C 6.9375 -0.4375 6.859375 -0.234375 6.703125 -0.046875 C 6.546875 0.128906 6.332031 0.21875 6.0625 0.21875 Z M 6.0625 0.21875 "/></g></g></g><g fill="#336b87" fill-opacity="1"><g transform="translate(106.106092, 310.330496)"><g><path d="M 2.59375 0.109375 C 2.320312 0.109375 2.109375 0.0195312 1.953125 -0.15625 C 1.804688 -0.34375 1.734375 -0.546875 1.734375 -0.765625 L 1.734375 -9.75 C 1.734375 -9.957031 1.804688 -10.148438 1.953125 -10.328125 C 2.109375 -10.515625 2.320312 -10.609375 2.59375 -10.609375 C 2.875 -10.609375 3.085938 -10.515625 3.234375 -10.328125 C 3.390625 -10.148438 3.46875 -9.957031 3.46875 -9.75 L 3.46875 -9.53125 L 3.578125 -9.53125 C 3.722656 -9.769531 3.914062 -9.984375 4.15625 -10.171875 C 4.363281 -10.335938 4.625 -10.488281 4.9375 -10.625 C 5.257812 -10.757812 5.632812 -10.828125 6.0625 -10.828125 L 7.03125 -10.828125 C 7.25 -10.828125 7.429688 -10.753906 7.578125 -10.609375 C 7.722656 -10.460938 7.796875 -10.28125 7.796875 -10.0625 C 7.796875 -9.851562 7.722656 -9.675781 7.578125 -9.53125 C 7.429688 -9.382812 7.25 -9.3125 7.03125 -9.3125 L 5.84375 -9.3125 C 5.507812 -9.3125 5.195312 -9.242188 4.90625 -9.109375 C 4.625 -8.984375 4.375 -8.804688 4.15625 -8.578125 C 3.9375 -8.347656 3.765625 -8.070312 3.640625 -7.75 C 3.523438 -7.4375 3.46875 -7.09375 3.46875 -6.71875 L 3.46875 -0.765625 C 3.46875 -0.546875 3.390625 -0.34375 3.234375 -0.15625 C 3.085938 0.0195312 2.875 0.109375 2.59375 0.109375 Z M 2.59375 0.109375 "/></g></g></g><g fill="#336b87" fill-opacity="1"><g transform="translate(115.803826, 310.330496)"><g><path d="M 4.546875 0.328125 C 3.992188 0.328125 3.5 0.242188 3.0625 0.078125 C 2.632812 -0.0859375 2.257812 -0.316406 1.9375 -0.609375 C 1.625 -0.898438 1.382812 -1.242188 1.21875 -1.640625 C 1.050781 -2.035156 0.96875 -2.460938 0.96875 -2.921875 C 0.96875 -3.359375 1.054688 -3.769531 1.234375 -4.15625 C 1.421875 -4.550781 1.6875 -4.898438 2.03125 -5.203125 C 2.382812 -5.503906 2.804688 -5.738281 3.296875 -5.90625 C 3.796875 -6.082031 4.359375 -6.171875 4.984375 -6.171875 L 8.125 -6.171875 L 8.125 -6.828125 C 8.125 -7.535156 7.878906 -8.125 7.390625 -8.59375 C 6.898438 -9.070312 6.242188 -9.3125 5.421875 -9.3125 C 4.765625 -9.3125 4.257812 -9.179688 3.90625 -8.921875 C 3.550781 -8.671875 3.296875 -8.441406 3.140625 -8.234375 C 2.984375 -8.015625 2.832031 -7.847656 2.6875 -7.734375 C 2.550781 -7.628906 2.378906 -7.578125 2.171875 -7.578125 C 1.953125 -7.578125 1.769531 -7.648438 1.625 -7.796875 C 1.476562 -7.941406 1.40625 -8.125 1.40625 -8.34375 C 1.40625 -8.5 1.441406 -8.648438 1.515625 -8.796875 C 1.546875 -8.867188 1.582031 -8.929688 1.625 -8.984375 C 1.707031 -9.117188 1.847656 -9.289062 2.046875 -9.5 C 2.253906 -9.707031 2.515625 -9.90625 2.828125 -10.09375 C 3.148438 -10.289062 3.523438 -10.460938 3.953125 -10.609375 C 4.378906 -10.753906 4.867188 -10.828125 5.421875 -10.828125 C 6.066406 -10.828125 6.660156 -10.71875 7.203125 -10.5 C 7.742188 -10.28125 8.210938 -9.988281 8.609375 -9.625 C 9.003906 -9.269531 9.3125 -8.847656 9.53125 -8.359375 C 9.75 -7.867188 9.859375 -7.359375 9.859375 -6.828125 L 9.859375 -0.765625 C 9.859375 -0.546875 9.78125 -0.34375 9.625 -0.15625 C 9.476562 0.0195312 9.265625 0.109375 8.984375 0.109375 C 8.710938 0.109375 8.5 0.0195312 8.34375 -0.15625 C 8.195312 -0.34375 8.125 -0.546875 8.125 -0.765625 L 8.125 -0.859375 L 8.015625 -0.859375 C 7.734375 -0.628906 7.421875 -0.429688 7.078125 -0.265625 C 6.773438 -0.0976562 6.414062 0.0390625 6 0.15625 C 5.582031 0.269531 5.097656 0.328125 4.546875 0.328125 Z M 4.765625 -1.1875 C 5.367188 -1.1875 5.878906 -1.257812 6.296875 -1.40625 C 6.722656 -1.550781 7.070312 -1.710938 7.34375 -1.890625 C 7.65625 -2.085938 7.914062 -2.320312 8.125 -2.59375 L 8.125 -4.65625 L 4.984375 -4.65625 C 4.210938 -4.65625 3.640625 -4.488281 3.265625 -4.15625 C 2.890625 -3.820312 2.703125 -3.410156 2.703125 -2.921875 C 2.703125 -2.429688 2.882812 -2.019531 3.25 -1.6875 C 3.613281 -1.351562 4.117188 -1.1875 4.765625 -1.1875 Z M 4.765625 -1.1875 "/></g></g></g><g fill="#336b87" fill-opacity="1"><g transform="translate(129.072906, 310.330496)"><g><path d="M 5.203125 0.328125 C 4.867188 0.328125 4.597656 0.234375 4.390625 0.046875 C 4.179688 -0.140625 4.015625 -0.375 3.890625 -0.65625 L 0.546875 -8.984375 C 0.492188 -9.097656 0.441406 -9.222656 0.390625 -9.359375 C 0.347656 -9.503906 0.328125 -9.632812 0.328125 -9.75 C 0.328125 -9.957031 0.398438 -10.148438 0.546875 -10.328125 C 0.703125 -10.515625 0.914062 -10.609375 1.1875 -10.609375 C 1.40625 -10.609375 1.585938 -10.539062 1.734375 -10.40625 C 1.878906 -10.269531 1.988281 -10.125 2.0625 -9.96875 L 5.15625 -2.171875 L 5.234375 -2.171875 L 8.34375 -9.96875 C 8.414062 -10.125 8.519531 -10.269531 8.65625 -10.40625 C 8.800781 -10.539062 8.984375 -10.609375 9.203125 -10.609375 C 9.472656 -10.609375 9.679688 -10.515625 9.828125 -10.328125 C 9.984375 -10.148438 10.0625 -9.957031 10.0625 -9.75 C 10.0625 -9.632812 10.035156 -9.503906 9.984375 -9.359375 C 9.941406 -9.222656 9.898438 -9.097656 9.859375 -8.984375 L 6.5 -0.65625 C 6.382812 -0.375 6.222656 -0.140625 6.015625 0.046875 C 5.804688 0.234375 5.535156 0.328125 5.203125 0.328125 Z M 5.203125 0.328125 "/></g></g></g><g fill="#336b87" fill-opacity="1"><g transform="translate(141.367992, 310.330496)"><g><path d="M 5.953125 0.328125 C 5.273438 0.328125 4.648438 0.21875 4.078125 0 C 3.515625 -0.226562 3.023438 -0.535156 2.609375 -0.921875 C 2.203125 -1.316406 1.878906 -1.769531 1.640625 -2.28125 C 1.410156 -2.789062 1.296875 -3.328125 1.296875 -3.890625 L 1.296875 -6.609375 C 1.296875 -7.171875 1.410156 -7.707031 1.640625 -8.21875 C 1.878906 -8.726562 2.203125 -9.175781 2.609375 -9.5625 C 3.023438 -9.957031 3.515625 -10.265625 4.078125 -10.484375 C 4.648438 -10.710938 5.273438 -10.828125 5.953125 -10.828125 C 6.628906 -10.828125 7.253906 -10.710938 7.828125 -10.484375 C 8.398438 -10.265625 8.890625 -9.957031 9.296875 -9.5625 C 9.710938 -9.175781 10.035156 -8.726562 10.265625 -8.21875 C 10.492188 -7.707031 10.609375 -7.171875 10.609375 -6.609375 L 10.609375 -5.421875 C 10.609375 -5.203125 10.53125 -5 10.375 -4.8125 C 10.226562 -4.632812 10.019531 -4.546875 9.75 -4.546875 L 3.03125 -4.546875 L 3.03125 -3.890625 C 3.03125 -3.515625 3.101562 -3.160156 3.25 -2.828125 C 3.394531 -2.503906 3.59375 -2.21875 3.84375 -1.96875 C 4.09375 -1.726562 4.398438 -1.535156 4.765625 -1.390625 C 5.128906 -1.253906 5.523438 -1.1875 5.953125 -1.1875 C 6.609375 -1.1875 7.125 -1.269531 7.5 -1.4375 C 7.875 -1.601562 8.175781 -1.789062 8.40625 -2 C 8.644531 -2.207031 8.847656 -2.394531 9.015625 -2.5625 C 9.179688 -2.726562 9.390625 -2.8125 9.640625 -2.8125 C 9.859375 -2.8125 10.035156 -2.738281 10.171875 -2.59375 C 10.316406 -2.445312 10.390625 -2.269531 10.390625 -2.0625 C 10.390625 -1.875 10.285156 -1.640625 10.078125 -1.359375 C 9.878906 -1.085938 9.59375 -0.828125 9.21875 -0.578125 C 8.84375 -0.335938 8.378906 -0.128906 7.828125 0.046875 C 7.285156 0.234375 6.660156 0.328125 5.953125 0.328125 Z M 8.875 -6.0625 L 8.875 -6.609375 C 8.875 -6.984375 8.800781 -7.335938 8.65625 -7.671875 C 8.519531 -8.003906 8.320312 -8.289062 8.0625 -8.53125 C 7.8125 -8.78125 7.503906 -8.972656 7.140625 -9.109375 C 6.785156 -9.242188 6.390625 -9.3125 5.953125 -9.3125 C 5.523438 -9.3125 5.128906 -9.242188 4.765625 -9.109375 C 4.398438 -8.972656 4.09375 -8.78125 3.84375 -8.53125 C 3.59375 -8.289062 3.394531 -8.003906 3.25 -7.671875 C 3.101562 -7.335938 3.03125 -6.984375 3.03125 -6.609375 L 3.03125 -6.0625 Z M 8.875 -6.0625 "/></g></g></g><g fill="#336b87" fill-opacity="1"><g transform="translate(154.961741, 310.330496)"><g><path d="M 2.59375 0.109375 C 2.320312 0.109375 2.109375 0.0195312 1.953125 -0.15625 C 1.804688 -0.34375 1.734375 -0.546875 1.734375 -0.765625 L 1.734375 -14.1875 C 1.734375 -14.40625 1.804688 -14.601562 1.953125 -14.78125 C 2.109375 -14.957031 2.320312 -15.046875 2.59375 -15.046875 C 2.875 -15.046875 3.085938 -14.957031 3.234375 -14.78125 C 3.390625 -14.601562 3.46875 -14.40625 3.46875 -14.1875 L 3.46875 -0.765625 C 3.46875 -0.546875 3.390625 -0.34375 3.234375 -0.15625 C 3.085938 0.0195312 2.875 0.109375 2.59375 0.109375 Z M 2.59375 0.109375 "/></g></g></g><g fill="#336b87" fill-opacity="1"><g transform="translate(162.062135, 310.330496)"><g/></g></g><g fill="#336b87" fill-opacity="1"><g transform="translate(169.16253, 310.330496)"><g><path d="M 6.0625 0.21875 C 5.789062 0.21875 5.578125 0.128906 5.421875 -0.046875 C 5.273438 -0.234375 5.203125 -0.4375 5.203125 -0.65625 L 5.203125 -13.640625 L 1.078125 -13.640625 C 0.804688 -13.640625 0.59375 -13.710938 0.4375 -13.859375 C 0.289062 -14.003906 0.21875 -14.1875 0.21875 -14.40625 C 0.21875 -14.613281 0.289062 -14.789062 0.4375 -14.9375 C 0.59375 -15.082031 0.804688 -15.15625 1.078125 -15.15625 L 11.046875 -15.15625 C 11.316406 -15.15625 11.523438 -15.082031 11.671875 -14.9375 C 11.828125 -14.789062 11.90625 -14.613281 11.90625 -14.40625 C 11.90625 -14.1875 11.828125 -14.003906 11.671875 -13.859375 C 11.523438 -13.710938 11.316406 -13.640625 11.046875 -13.640625 L 6.9375 -13.640625 L 6.9375 -0.65625 C 6.9375 -0.4375 6.859375 -0.234375 6.703125 -0.046875 C 6.546875 0.128906 6.332031 0.21875 6.0625 0.21875 Z M 6.0625 0.21875 "/></g></g></g><g fill="#336b87" fill-opacity="1"><g transform="translate(183.189175, 310.330496)"><g><path d="M 2.59375 0.109375 C 2.320312 0.109375 2.109375 0.0195312 1.953125 -0.15625 C 1.804688 -0.34375 1.734375 -0.546875 1.734375 -0.765625 L 1.734375 -14.1875 C 1.734375 -14.40625 1.804688 -14.601562 1.953125 -14.78125 C 2.109375 -14.957031 2.320312 -15.046875 2.59375 -15.046875 C 2.875 -15.046875 3.085938 -14.957031 3.234375 -14.78125 C 3.390625 -14.601562 3.46875 -14.40625 3.46875 -14.1875 L 3.46875 -9.53125 L 3.578125 -9.53125 C 3.773438 -9.769531 4.019531 -9.984375 4.3125 -10.171875 C 4.550781 -10.335938 4.863281 -10.488281 5.25 -10.625 C 5.632812 -10.757812 6.085938 -10.828125 6.609375 -10.828125 C 7.140625 -10.828125 7.648438 -10.71875 8.140625 -10.5 C 8.628906 -10.28125 9.054688 -9.988281 9.421875 -9.625 C 9.785156 -9.269531 10.070312 -8.847656 10.28125 -8.359375 C 10.5 -7.867188 10.609375 -7.359375 10.609375 -6.828125 L 10.609375 -0.765625 C 10.609375 -0.546875 10.53125 -0.34375 10.375 -0.15625 C 10.226562 0.0195312 10.019531 0.109375 9.75 0.109375 C 9.46875 0.109375 9.25 0.0195312 9.09375 -0.15625 C 8.945312 -0.34375 8.875 -0.546875 8.875 -0.765625 L 8.875 -6.828125 C 8.875 -7.535156 8.628906 -8.125 8.140625 -8.59375 C 7.648438 -9.070312 6.992188 -9.3125 6.171875 -9.3125 C 5.347656 -9.3125 4.691406 -9.070312 4.203125 -8.59375 C 3.710938 -8.125 3.46875 -7.535156 3.46875 -6.828125 L 3.46875 -0.765625 C 3.46875 -0.546875 3.390625 -0.34375 3.234375 -0.15625 C 3.085938 0.0195312 2.875 0.109375 2.59375 0.109375 Z M 2.59375 0.109375 "/></g></g></g><g fill="#336b87" fill-opacity="1"><g transform="translate(197.215819, 310.330496)"><g><path d="M 5.953125 0.328125 C 5.273438 0.328125 4.648438 0.21875 4.078125 0 C 3.515625 -0.226562 3.023438 -0.535156 2.609375 -0.921875 C 2.203125 -1.316406 1.878906 -1.769531 1.640625 -2.28125 C 1.410156 -2.789062 1.296875 -3.328125 1.296875 -3.890625 L 1.296875 -6.609375 C 1.296875 -7.171875 1.410156 -7.707031 1.640625 -8.21875 C 1.878906 -8.726562 2.203125 -9.175781 2.609375 -9.5625 C 3.023438 -9.957031 3.515625 -10.265625 4.078125 -10.484375 C 4.648438 -10.710938 5.273438 -10.828125 5.953125 -10.828125 C 6.628906 -10.828125 7.253906 -10.710938 7.828125 -10.484375 C 8.398438 -10.265625 8.890625 -9.957031 9.296875 -9.5625 C 9.710938 -9.175781 10.035156 -8.726562 10.265625 -8.21875 C 10.492188 -7.707031 10.609375 -7.171875 10.609375 -6.609375 L 10.609375 -5.421875 C 10.609375 -5.203125 10.53125 -5 10.375 -4.8125 C 10.226562 -4.632812 10.019531 -4.546875 9.75 -4.546875 L 3.03125 -4.546875 L 3.03125 -3.890625 C 3.03125 -3.515625 3.101562 -3.160156 3.25 -2.828125 C 3.394531 -2.503906 3.59375 -2.21875 3.84375 -1.96875 C 4.09375 -1.726562 4.398438 -1.535156 4.765625 -1.390625 C 5.128906 -1.253906 5.523438 -1.1875 5.953125 -1.1875 C 6.609375 -1.1875 7.125 -1.269531 7.5 -1.4375 C 7.875 -1.601562 8.175781 -1.789062 8.40625 -2 C 8.644531 -2.207031 8.847656 -2.394531 9.015625 -2.5625 C 9.179688 -2.726562 9.390625 -2.8125 9.640625 -2.8125 C 9.859375 -2.8125 10.035156 -2.738281 10.171875 -2.59375 C 10.316406 -2.445312 10.390625 -2.269531 10.390625 -2.0625 C 10.390625 -1.875 10.285156 -1.640625 10.078125 -1.359375 C 9.878906 -1.085938 9.59375 -0.828125 9.21875 -0.578125 C 8.84375 -0.335938 8.378906 -0.128906 7.828125 0.046875 C 7.285156 0.234375 6.660156 0.328125 5.953125 0.328125 Z M 8.875 -6.0625 L 8.875 -6.609375 C 8.875 -6.984375 8.800781 -7.335938 8.65625 -7.671875 C 8.519531 -8.003906 8.320312 -8.289062 8.0625 -8.53125 C 7.8125 -8.78125 7.503906 -8.972656 7.140625 -9.109375 C 6.785156 -9.242188 6.390625 -9.3125 5.953125 -9.3125 C 5.523438 -9.3125 5.128906 -9.242188 4.765625 -9.109375 C 4.398438 -8.972656 4.09375 -8.78125 3.84375 -8.53125 C 3.59375 -8.289062 3.394531 -8.003906 3.25 -7.671875 C 3.101562 -7.335938 3.03125 -6.984375 3.03125 -6.609375 L 3.03125 -6.0625 Z M 8.875 -6.0625 "/></g></g></g><g fill="#336b87" fill-opacity="1"><g transform="translate(210.809568, 310.330496)"><g/></g></g><g fill="#336b87" fill-opacity="1"><g transform="translate(217.909963, 310.330496)"><g><path d="M 5.625 0.4375 C 5.289062 0.4375 5.023438 0.34375 4.828125 0.15625 C 4.640625 -0.03125 4.507812 -0.265625 4.4375 -0.546875 L 0.65625 -13.53125 C 0.601562 -13.664062 0.566406 -13.789062 0.546875 -13.90625 C 0.472656 -14.125 0.4375 -14.328125 0.4375 -14.515625 C 0.4375 -14.722656 0.507812 -14.914062 0.65625 -15.09375 C 0.8125 -15.28125 1.023438 -15.375 1.296875 -15.375 C 1.515625 -15.375 1.703125 -15.304688 1.859375 -15.171875 C 2.015625 -15.035156 2.117188 -14.882812 2.171875 -14.71875 L 5.59375 -2.8125 L 5.671875 -2.8125 L 8.984375 -14.40625 C 9.054688 -14.675781 9.191406 -14.90625 9.390625 -15.09375 C 9.585938 -15.28125 9.847656 -15.375 10.171875 -15.375 C 10.503906 -15.375 10.769531 -15.28125 10.96875 -15.09375 C 11.164062 -14.90625 11.300781 -14.675781 11.375 -14.40625 L 14.6875 -2.8125 L 14.765625 -2.8125 L 18.1875 -14.71875 C 18.226562 -14.882812 18.328125 -15.035156 18.484375 -15.171875 C 18.648438 -15.304688 18.84375 -15.375 19.0625 -15.375 C 19.332031 -15.375 19.539062 -15.28125 19.6875 -15.09375 C 19.84375 -14.914062 19.921875 -14.722656 19.921875 -14.515625 C 19.921875 -14.421875 19.910156 -14.320312 19.890625 -14.21875 C 19.867188 -14.113281 19.84375 -14.007812 19.8125 -13.90625 C 19.769531 -13.789062 19.734375 -13.664062 19.703125 -13.53125 L 15.921875 -0.546875 C 15.847656 -0.265625 15.710938 -0.03125 15.515625 0.15625 C 15.316406 0.34375 15.050781 0.4375 14.71875 0.4375 C 14.394531 0.4375 14.132812 0.34375 13.9375 0.15625 C 13.738281 -0.03125 13.601562 -0.265625 13.53125 -0.546875 L 10.21875 -12.234375 L 10.140625 -12.234375 L 6.828125 -0.546875 C 6.753906 -0.265625 6.617188 -0.03125 6.421875 0.15625 C 6.222656 0.34375 5.957031 0.4375 5.625 0.4375 Z M 5.625 0.4375 "/></g></g></g><g fill="#336b87" fill-opacity="1"><g transform="translate(240.161522, 310.330496)"><g><path d="M 5.953125 0.328125 C 5.273438 0.328125 4.648438 0.21875 4.078125 0 C 3.515625 -0.226562 3.023438 -0.535156 2.609375 -0.921875 C 2.203125 -1.316406 1.878906 -1.769531 1.640625 -2.28125 C 1.410156 -2.789062 1.296875 -3.328125 1.296875 -3.890625 L 1.296875 -6.609375 C 1.296875 -7.171875 1.410156 -7.707031 1.640625 -8.21875 C 1.878906 -8.726562 2.203125 -9.175781 2.609375 -9.5625 C 3.023438 -9.957031 3.515625 -10.265625 4.078125 -10.484375 C 4.648438 -10.710938 5.273438 -10.828125 5.953125 -10.828125 C 6.628906 -10.828125 7.253906 -10.710938 7.828125 -10.484375 C 8.398438 -10.265625 8.890625 -9.957031 9.296875 -9.5625 C 9.710938 -9.175781 10.035156 -8.726562 10.265625 -8.21875 C 10.492188 -7.707031 10.609375 -7.171875 10.609375 -6.609375 L 10.609375 -3.890625 C 10.609375 -3.328125 10.492188 -2.789062 10.265625 -2.28125 C 10.035156 -1.769531 9.710938 -1.316406 9.296875 -0.921875 C 8.890625 -0.535156 8.398438 -0.226562 7.828125 0 C 7.253906 0.21875 6.628906 0.328125 5.953125 0.328125 Z M 5.953125 -1.1875 C 6.390625 -1.1875 6.785156 -1.253906 7.140625 -1.390625 C 7.503906 -1.535156 7.8125 -1.726562 8.0625 -1.96875 C 8.320312 -2.21875 8.519531 -2.503906 8.65625 -2.828125 C 8.800781 -3.160156 8.875 -3.515625 8.875 -3.890625 L 8.875 -6.609375 C 8.875 -6.984375 8.800781 -7.335938 8.65625 -7.671875 C 8.519531 -8.003906 8.320312 -8.289062 8.0625 -8.53125 C 7.8125 -8.78125 7.503906 -8.972656 7.140625 -9.109375 C 6.785156 -9.242188 6.390625 -9.3125 5.953125 -9.3125 C 5.523438 -9.3125 5.128906 -9.242188 4.765625 -9.109375 C 4.398438 -8.972656 4.09375 -8.78125 3.84375 -8.53125 C 3.59375 -8.289062 3.394531 -8.003906 3.25 -7.671875 C 3.101562 -7.335938 3.03125 -6.984375 3.03125 -6.609375 L 3.03125 -3.890625 C 3.03125 -3.515625 3.101562 -3.160156 3.25 -2.828125 C 3.394531 -2.503906 3.59375 -2.21875 3.84375 -1.96875 C 4.09375 -1.726562 4.398438 -1.535156 4.765625 -1.390625 C 5.128906 -1.253906 5.523438 -1.1875 5.953125 -1.1875 Z M 5.953125 -1.1875 "/></g></g></g><g fill="#336b87" fill-opacity="1"><g transform="translate(253.971713, 310.330496)"><g><path d="M 2.59375 0.109375 C 2.320312 0.109375 2.109375 0.0195312 1.953125 -0.15625 C 1.804688 -0.34375 1.734375 -0.546875 1.734375 -0.765625 L 1.734375 -9.75 C 1.734375 -9.957031 1.804688 -10.148438 1.953125 -10.328125 C 2.109375 -10.515625 2.320312 -10.609375 2.59375 -10.609375 C 2.875 -10.609375 3.085938 -10.515625 3.234375 -10.328125 C 3.390625 -10.148438 3.46875 -9.957031 3.46875 -9.75 L 3.46875 -9.53125 L 3.578125 -9.53125 C 3.722656 -9.769531 3.914062 -9.984375 4.15625 -10.171875 C 4.363281 -10.335938 4.625 -10.488281 4.9375 -10.625 C 5.257812 -10.757812 5.632812 -10.828125 6.0625 -10.828125 L 7.03125 -10.828125 C 7.25 -10.828125 7.429688 -10.753906 7.578125 -10.609375 C 7.722656 -10.460938 7.796875 -10.28125 7.796875 -10.0625 C 7.796875 -9.851562 7.722656 -9.675781 7.578125 -9.53125 C 7.429688 -9.382812 7.25 -9.3125 7.03125 -9.3125 L 5.84375 -9.3125 C 5.507812 -9.3125 5.195312 -9.242188 4.90625 -9.109375 C 4.625 -8.984375 4.375 -8.804688 4.15625 -8.578125 C 3.9375 -8.347656 3.765625 -8.070312 3.640625 -7.75 C 3.523438 -7.4375 3.46875 -7.09375 3.46875 -6.71875 L 3.46875 -0.765625 C 3.46875 -0.546875 3.390625 -0.34375 3.234375 -0.15625 C 3.085938 0.0195312 2.875 0.109375 2.59375 0.109375 Z M 2.59375 0.109375 "/></g></g></g><g fill="#336b87" fill-opacity="1"><g transform="translate(263.669447, 310.330496)"><g><path d="M 2.59375 0.109375 C 2.320312 0.109375 2.109375 0.0195312 1.953125 -0.15625 C 1.804688 -0.34375 1.734375 -0.546875 1.734375 -0.765625 L 1.734375 -14.1875 C 1.734375 -14.40625 1.804688 -14.601562 1.953125 -14.78125 C 2.109375 -14.957031 2.320312 -15.046875 2.59375 -15.046875 C 2.875 -15.046875 3.085938 -14.957031 3.234375 -14.78125 C 3.390625 -14.601562 3.46875 -14.40625 3.46875 -14.1875 L 3.46875 -0.765625 C 3.46875 -0.546875 3.390625 -0.34375 3.234375 -0.15625 C 3.085938 0.0195312 2.875 0.109375 2.59375 0.109375 Z M 2.59375 0.109375 "/></g></g></g><g fill="#336b87" fill-opacity="1"><g transform="translate(270.769842, 310.330496)"><g><path d="M 5.625 0.328125 C 5.039062 0.328125 4.484375 0.21875 3.953125 0 C 3.421875 -0.226562 2.960938 -0.535156 2.578125 -0.921875 C 2.191406 -1.316406 1.878906 -1.769531 1.640625 -2.28125 C 1.410156 -2.789062 1.296875 -3.328125 1.296875 -3.890625 L 1.296875 -6.609375 C 1.296875 -7.171875 1.410156 -7.707031 1.640625 -8.21875 C 1.878906 -8.726562 2.191406 -9.175781 2.578125 -9.5625 C 2.960938 -9.957031 3.421875 -10.265625 3.953125 -10.484375 C 4.484375 -10.710938 5.039062 -10.828125 5.625 -10.828125 C 6.113281 -10.828125 6.539062 -10.757812 6.90625 -10.625 C 7.269531 -10.488281 7.570312 -10.335938 7.8125 -10.171875 C 8.09375 -9.984375 8.335938 -9.769531 8.546875 -9.53125 L 8.65625 -9.53125 L 8.65625 -14.1875 C 8.65625 -14.40625 8.734375 -14.601562 8.890625 -14.78125 C 9.046875 -14.957031 9.257812 -15.046875 9.53125 -15.046875 C 9.800781 -15.046875 10.007812 -14.957031 10.15625 -14.78125 C 10.3125 -14.601562 10.390625 -14.40625 10.390625 -14.1875 L 10.390625 -0.765625 C 10.390625 -0.546875 10.3125 -0.34375 10.15625 -0.15625 C 10.007812 0.0195312 9.800781 0.109375 9.53125 0.109375 C 9.257812 0.109375 9.046875 0.0195312 8.890625 -0.15625 C 8.734375 -0.34375 8.65625 -0.546875 8.65625 -0.765625 L 8.65625 -0.96875 L 8.546875 -0.96875 C 8.335938 -0.726562 8.09375 -0.515625 7.8125 -0.328125 C 7.570312 -0.171875 7.269531 -0.0234375 6.90625 0.109375 C 6.539062 0.253906 6.113281 0.328125 5.625 0.328125 Z M 5.84375 -1.1875 C 6.25 -1.1875 6.625 -1.253906 6.96875 -1.390625 C 7.320312 -1.535156 7.617188 -1.726562 7.859375 -1.96875 C 8.109375 -2.21875 8.300781 -2.503906 8.4375 -2.828125 C 8.582031 -3.160156 8.65625 -3.515625 8.65625 -3.890625 L 8.65625 -6.609375 C 8.65625 -6.984375 8.582031 -7.335938 8.4375 -7.671875 C 8.300781 -8.003906 8.109375 -8.289062 7.859375 -8.53125 C 7.617188 -8.78125 7.320312 -8.972656 6.96875 -9.109375 C 6.625 -9.242188 6.25 -9.3125 5.84375 -9.3125 C 5.4375 -9.3125 5.0625 -9.242188 4.71875 -9.109375 C 4.375 -8.972656 4.078125 -8.78125 3.828125 -8.53125 C 3.585938 -8.289062 3.394531 -8.003906 3.25 -7.671875 C 3.101562 -7.335938 3.03125 -6.984375 3.03125 -6.609375 L 3.03125 -3.890625 C 3.03125 -3.515625 3.101562 -3.160156 3.25 -2.828125 C 3.394531 -2.503906 3.585938 -2.21875 3.828125 -1.96875 C 4.078125 -1.726562 4.375 -1.535156 4.71875 -1.390625 C 5.0625 -1.253906 5.4375 -1.1875 5.84375 -1.1875 Z M 5.84375 -1.1875 "/></g></g></g></svg>